%TF.GenerationSoftware,KiCad,Pcbnew,7.0.8*%
%TF.CreationDate,2024-03-30T04:59:33+03:00*%
%TF.ProjectId,PowerSensor,506f7765-7253-4656-9e73-6f722e6b6963,rev?*%
%TF.SameCoordinates,Original*%
%TF.FileFunction,Legend,Bot*%
%TF.FilePolarity,Positive*%
%FSLAX46Y46*%
G04 Gerber Fmt 4.6, Leading zero omitted, Abs format (unit mm)*
G04 Created by KiCad (PCBNEW 7.0.8) date 2024-03-30 04:59:33*
%MOMM*%
%LPD*%
G01*
G04 APERTURE LIST*
%ADD10C,0.150000*%
%ADD11C,0.120000*%
G04 APERTURE END LIST*
D10*
X113579166Y-88804819D02*
X113912499Y-88328628D01*
X114150594Y-88804819D02*
X114150594Y-87804819D01*
X114150594Y-87804819D02*
X113769642Y-87804819D01*
X113769642Y-87804819D02*
X113674404Y-87852438D01*
X113674404Y-87852438D02*
X113626785Y-87900057D01*
X113626785Y-87900057D02*
X113579166Y-87995295D01*
X113579166Y-87995295D02*
X113579166Y-88138152D01*
X113579166Y-88138152D02*
X113626785Y-88233390D01*
X113626785Y-88233390D02*
X113674404Y-88281009D01*
X113674404Y-88281009D02*
X113769642Y-88328628D01*
X113769642Y-88328628D02*
X114150594Y-88328628D01*
X112722023Y-88138152D02*
X112722023Y-88804819D01*
X112960118Y-87757200D02*
X113198213Y-88471485D01*
X113198213Y-88471485D02*
X112579166Y-88471485D01*
X109879166Y-88804819D02*
X110212499Y-88328628D01*
X110450594Y-88804819D02*
X110450594Y-87804819D01*
X110450594Y-87804819D02*
X110069642Y-87804819D01*
X110069642Y-87804819D02*
X109974404Y-87852438D01*
X109974404Y-87852438D02*
X109926785Y-87900057D01*
X109926785Y-87900057D02*
X109879166Y-87995295D01*
X109879166Y-87995295D02*
X109879166Y-88138152D01*
X109879166Y-88138152D02*
X109926785Y-88233390D01*
X109926785Y-88233390D02*
X109974404Y-88281009D01*
X109974404Y-88281009D02*
X110069642Y-88328628D01*
X110069642Y-88328628D02*
X110450594Y-88328628D01*
X108974404Y-87804819D02*
X109450594Y-87804819D01*
X109450594Y-87804819D02*
X109498213Y-88281009D01*
X109498213Y-88281009D02*
X109450594Y-88233390D01*
X109450594Y-88233390D02*
X109355356Y-88185771D01*
X109355356Y-88185771D02*
X109117261Y-88185771D01*
X109117261Y-88185771D02*
X109022023Y-88233390D01*
X109022023Y-88233390D02*
X108974404Y-88281009D01*
X108974404Y-88281009D02*
X108926785Y-88376247D01*
X108926785Y-88376247D02*
X108926785Y-88614342D01*
X108926785Y-88614342D02*
X108974404Y-88709580D01*
X108974404Y-88709580D02*
X109022023Y-88757200D01*
X109022023Y-88757200D02*
X109117261Y-88804819D01*
X109117261Y-88804819D02*
X109355356Y-88804819D01*
X109355356Y-88804819D02*
X109450594Y-88757200D01*
X109450594Y-88757200D02*
X109498213Y-88709580D01*
D11*
%TO.C,R4*%
X113639564Y-90735000D02*
X113185436Y-90735000D01*
X113639564Y-89265000D02*
X113185436Y-89265000D01*
%TO.C,R5*%
X109939564Y-90735000D02*
X109485436Y-90735000D01*
X109939564Y-89265000D02*
X109485436Y-89265000D01*
%TD*%
M02*
