%TF.GenerationSoftware,KiCad,Pcbnew,7.0.8*%
%TF.CreationDate,2024-03-30T04:59:33+03:00*%
%TF.ProjectId,PowerSensor,506f7765-7253-4656-9e73-6f722e6b6963,rev?*%
%TF.SameCoordinates,Original*%
%TF.FileFunction,Copper,L2,Bot*%
%TF.FilePolarity,Positive*%
%FSLAX46Y46*%
G04 Gerber Fmt 4.6, Leading zero omitted, Abs format (unit mm)*
G04 Created by KiCad (PCBNEW 7.0.8) date 2024-03-30 04:59:33*
%MOMM*%
%LPD*%
G01*
G04 APERTURE LIST*
G04 Aperture macros list*
%AMRoundRect*
0 Rectangle with rounded corners*
0 $1 Rounding radius*
0 $2 $3 $4 $5 $6 $7 $8 $9 X,Y pos of 4 corners*
0 Add a 4 corners polygon primitive as box body*
4,1,4,$2,$3,$4,$5,$6,$7,$8,$9,$2,$3,0*
0 Add four circle primitives for the rounded corners*
1,1,$1+$1,$2,$3*
1,1,$1+$1,$4,$5*
1,1,$1+$1,$6,$7*
1,1,$1+$1,$8,$9*
0 Add four rect primitives between the rounded corners*
20,1,$1+$1,$2,$3,$4,$5,0*
20,1,$1+$1,$4,$5,$6,$7,0*
20,1,$1+$1,$6,$7,$8,$9,0*
20,1,$1+$1,$8,$9,$2,$3,0*%
G04 Aperture macros list end*
%ADD10C,0.300000*%
%TA.AperFunction,NonConductor*%
%ADD11C,0.300000*%
%TD*%
%TA.AperFunction,NonConductor*%
%ADD12C,0.200000*%
%TD*%
%TA.AperFunction,ComponentPad*%
%ADD13R,3.000000X3.000000*%
%TD*%
%TA.AperFunction,ComponentPad*%
%ADD14C,3.000000*%
%TD*%
%TA.AperFunction,SMDPad,CuDef*%
%ADD15RoundRect,0.250000X0.262500X0.450000X-0.262500X0.450000X-0.262500X-0.450000X0.262500X-0.450000X0*%
%TD*%
%TA.AperFunction,ViaPad*%
%ADD16C,0.800000*%
%TD*%
%TA.AperFunction,Conductor*%
%ADD17C,0.250000*%
%TD*%
G04 APERTURE END LIST*
D10*
D11*
X131021185Y-99428569D02*
X130949757Y-99357141D01*
X130949757Y-99357141D02*
X130878328Y-99214284D01*
X130878328Y-99214284D02*
X130878328Y-98857141D01*
X130878328Y-98857141D02*
X130949757Y-98714284D01*
X130949757Y-98714284D02*
X131021185Y-98642855D01*
X131021185Y-98642855D02*
X131164042Y-98571426D01*
X131164042Y-98571426D02*
X131306900Y-98571426D01*
X131306900Y-98571426D02*
X131521185Y-98642855D01*
X131521185Y-98642855D02*
X132378328Y-99499998D01*
X132378328Y-99499998D02*
X132378328Y-98571426D01*
X131021185Y-97999998D02*
X130949757Y-97928570D01*
X130949757Y-97928570D02*
X130878328Y-97785713D01*
X130878328Y-97785713D02*
X130878328Y-97428570D01*
X130878328Y-97428570D02*
X130949757Y-97285713D01*
X130949757Y-97285713D02*
X131021185Y-97214284D01*
X131021185Y-97214284D02*
X131164042Y-97142855D01*
X131164042Y-97142855D02*
X131306900Y-97142855D01*
X131306900Y-97142855D02*
X131521185Y-97214284D01*
X131521185Y-97214284D02*
X132378328Y-98071427D01*
X132378328Y-98071427D02*
X132378328Y-97142855D01*
X132235471Y-96499999D02*
X132306900Y-96428570D01*
X132306900Y-96428570D02*
X132378328Y-96499999D01*
X132378328Y-96499999D02*
X132306900Y-96571427D01*
X132306900Y-96571427D02*
X132235471Y-96499999D01*
X132235471Y-96499999D02*
X132378328Y-96499999D01*
X130878328Y-95142856D02*
X130878328Y-95428570D01*
X130878328Y-95428570D02*
X130949757Y-95571427D01*
X130949757Y-95571427D02*
X131021185Y-95642856D01*
X131021185Y-95642856D02*
X131235471Y-95785713D01*
X131235471Y-95785713D02*
X131521185Y-95857141D01*
X131521185Y-95857141D02*
X132092614Y-95857141D01*
X132092614Y-95857141D02*
X132235471Y-95785713D01*
X132235471Y-95785713D02*
X132306900Y-95714284D01*
X132306900Y-95714284D02*
X132378328Y-95571427D01*
X132378328Y-95571427D02*
X132378328Y-95285713D01*
X132378328Y-95285713D02*
X132306900Y-95142856D01*
X132306900Y-95142856D02*
X132235471Y-95071427D01*
X132235471Y-95071427D02*
X132092614Y-94999998D01*
X132092614Y-94999998D02*
X131735471Y-94999998D01*
X131735471Y-94999998D02*
X131592614Y-95071427D01*
X131592614Y-95071427D02*
X131521185Y-95142856D01*
X131521185Y-95142856D02*
X131449757Y-95285713D01*
X131449757Y-95285713D02*
X131449757Y-95571427D01*
X131449757Y-95571427D02*
X131521185Y-95714284D01*
X131521185Y-95714284D02*
X131592614Y-95785713D01*
X131592614Y-95785713D02*
X131735471Y-95857141D01*
X130878328Y-94071427D02*
X130878328Y-93928570D01*
X130878328Y-93928570D02*
X130949757Y-93785713D01*
X130949757Y-93785713D02*
X131021185Y-93714285D01*
X131021185Y-93714285D02*
X131164042Y-93642856D01*
X131164042Y-93642856D02*
X131449757Y-93571427D01*
X131449757Y-93571427D02*
X131806900Y-93571427D01*
X131806900Y-93571427D02*
X132092614Y-93642856D01*
X132092614Y-93642856D02*
X132235471Y-93714285D01*
X132235471Y-93714285D02*
X132306900Y-93785713D01*
X132306900Y-93785713D02*
X132378328Y-93928570D01*
X132378328Y-93928570D02*
X132378328Y-94071427D01*
X132378328Y-94071427D02*
X132306900Y-94214285D01*
X132306900Y-94214285D02*
X132235471Y-94285713D01*
X132235471Y-94285713D02*
X132092614Y-94357142D01*
X132092614Y-94357142D02*
X131806900Y-94428570D01*
X131806900Y-94428570D02*
X131449757Y-94428570D01*
X131449757Y-94428570D02*
X131164042Y-94357142D01*
X131164042Y-94357142D02*
X131021185Y-94285713D01*
X131021185Y-94285713D02*
X130949757Y-94214285D01*
X130949757Y-94214285D02*
X130878328Y-94071427D01*
X130878328Y-92642856D02*
X130878328Y-92499999D01*
X130878328Y-92499999D02*
X130949757Y-92357142D01*
X130949757Y-92357142D02*
X131021185Y-92285714D01*
X131021185Y-92285714D02*
X131164042Y-92214285D01*
X131164042Y-92214285D02*
X131449757Y-92142856D01*
X131449757Y-92142856D02*
X131806900Y-92142856D01*
X131806900Y-92142856D02*
X132092614Y-92214285D01*
X132092614Y-92214285D02*
X132235471Y-92285714D01*
X132235471Y-92285714D02*
X132306900Y-92357142D01*
X132306900Y-92357142D02*
X132378328Y-92499999D01*
X132378328Y-92499999D02*
X132378328Y-92642856D01*
X132378328Y-92642856D02*
X132306900Y-92785714D01*
X132306900Y-92785714D02*
X132235471Y-92857142D01*
X132235471Y-92857142D02*
X132092614Y-92928571D01*
X132092614Y-92928571D02*
X131806900Y-92999999D01*
X131806900Y-92999999D02*
X131449757Y-92999999D01*
X131449757Y-92999999D02*
X131164042Y-92928571D01*
X131164042Y-92928571D02*
X131021185Y-92857142D01*
X131021185Y-92857142D02*
X130949757Y-92785714D01*
X130949757Y-92785714D02*
X130878328Y-92642856D01*
X130878328Y-91214285D02*
X130878328Y-91071428D01*
X130878328Y-91071428D02*
X130949757Y-90928571D01*
X130949757Y-90928571D02*
X131021185Y-90857143D01*
X131021185Y-90857143D02*
X131164042Y-90785714D01*
X131164042Y-90785714D02*
X131449757Y-90714285D01*
X131449757Y-90714285D02*
X131806900Y-90714285D01*
X131806900Y-90714285D02*
X132092614Y-90785714D01*
X132092614Y-90785714D02*
X132235471Y-90857143D01*
X132235471Y-90857143D02*
X132306900Y-90928571D01*
X132306900Y-90928571D02*
X132378328Y-91071428D01*
X132378328Y-91071428D02*
X132378328Y-91214285D01*
X132378328Y-91214285D02*
X132306900Y-91357143D01*
X132306900Y-91357143D02*
X132235471Y-91428571D01*
X132235471Y-91428571D02*
X132092614Y-91500000D01*
X132092614Y-91500000D02*
X131806900Y-91571428D01*
X131806900Y-91571428D02*
X131449757Y-91571428D01*
X131449757Y-91571428D02*
X131164042Y-91500000D01*
X131164042Y-91500000D02*
X131021185Y-91428571D01*
X131021185Y-91428571D02*
X130949757Y-91357143D01*
X130949757Y-91357143D02*
X130878328Y-91214285D01*
X132378328Y-88928572D02*
X131378328Y-88928572D01*
X131521185Y-88928572D02*
X131449757Y-88857143D01*
X131449757Y-88857143D02*
X131378328Y-88714286D01*
X131378328Y-88714286D02*
X131378328Y-88500000D01*
X131378328Y-88500000D02*
X131449757Y-88357143D01*
X131449757Y-88357143D02*
X131592614Y-88285715D01*
X131592614Y-88285715D02*
X132378328Y-88285715D01*
X131592614Y-88285715D02*
X131449757Y-88214286D01*
X131449757Y-88214286D02*
X131378328Y-88071429D01*
X131378328Y-88071429D02*
X131378328Y-87857143D01*
X131378328Y-87857143D02*
X131449757Y-87714286D01*
X131449757Y-87714286D02*
X131592614Y-87642857D01*
X131592614Y-87642857D02*
X132378328Y-87642857D01*
X132378328Y-86928572D02*
X131378328Y-86928572D01*
X131521185Y-86928572D02*
X131449757Y-86857143D01*
X131449757Y-86857143D02*
X131378328Y-86714286D01*
X131378328Y-86714286D02*
X131378328Y-86500000D01*
X131378328Y-86500000D02*
X131449757Y-86357143D01*
X131449757Y-86357143D02*
X131592614Y-86285715D01*
X131592614Y-86285715D02*
X132378328Y-86285715D01*
X131592614Y-86285715D02*
X131449757Y-86214286D01*
X131449757Y-86214286D02*
X131378328Y-86071429D01*
X131378328Y-86071429D02*
X131378328Y-85857143D01*
X131378328Y-85857143D02*
X131449757Y-85714286D01*
X131449757Y-85714286D02*
X131592614Y-85642857D01*
X131592614Y-85642857D02*
X132378328Y-85642857D01*
D12*
X127500000Y-103800000D02*
X134086420Y-103800000D01*
X127500000Y-81200000D02*
X134086420Y-81200000D01*
X133500000Y-103800000D02*
X133500000Y-81200000D01*
X133500000Y-103800000D02*
X133500000Y-81200000D01*
X133500000Y-103800000D02*
X132913579Y-102673496D01*
X133500000Y-103800000D02*
X134086421Y-102673496D01*
X133500000Y-81200000D02*
X134086421Y-82326504D01*
X133500000Y-81200000D02*
X132913579Y-82326504D01*
D10*
D11*
X102200001Y-106878328D02*
X103128573Y-106878328D01*
X103128573Y-106878328D02*
X102628573Y-107449757D01*
X102628573Y-107449757D02*
X102842858Y-107449757D01*
X102842858Y-107449757D02*
X102985716Y-107521185D01*
X102985716Y-107521185D02*
X103057144Y-107592614D01*
X103057144Y-107592614D02*
X103128573Y-107735471D01*
X103128573Y-107735471D02*
X103128573Y-108092614D01*
X103128573Y-108092614D02*
X103057144Y-108235471D01*
X103057144Y-108235471D02*
X102985716Y-108306900D01*
X102985716Y-108306900D02*
X102842858Y-108378328D01*
X102842858Y-108378328D02*
X102414287Y-108378328D01*
X102414287Y-108378328D02*
X102271430Y-108306900D01*
X102271430Y-108306900D02*
X102200001Y-108235471D01*
X104485715Y-106878328D02*
X103771429Y-106878328D01*
X103771429Y-106878328D02*
X103700001Y-107592614D01*
X103700001Y-107592614D02*
X103771429Y-107521185D01*
X103771429Y-107521185D02*
X103914287Y-107449757D01*
X103914287Y-107449757D02*
X104271429Y-107449757D01*
X104271429Y-107449757D02*
X104414287Y-107521185D01*
X104414287Y-107521185D02*
X104485715Y-107592614D01*
X104485715Y-107592614D02*
X104557144Y-107735471D01*
X104557144Y-107735471D02*
X104557144Y-108092614D01*
X104557144Y-108092614D02*
X104485715Y-108235471D01*
X104485715Y-108235471D02*
X104414287Y-108306900D01*
X104414287Y-108306900D02*
X104271429Y-108378328D01*
X104271429Y-108378328D02*
X103914287Y-108378328D01*
X103914287Y-108378328D02*
X103771429Y-108306900D01*
X103771429Y-108306900D02*
X103700001Y-108235471D01*
X105200000Y-108235471D02*
X105271429Y-108306900D01*
X105271429Y-108306900D02*
X105200000Y-108378328D01*
X105200000Y-108378328D02*
X105128572Y-108306900D01*
X105128572Y-108306900D02*
X105200000Y-108235471D01*
X105200000Y-108235471D02*
X105200000Y-108378328D01*
X106557144Y-106878328D02*
X106271429Y-106878328D01*
X106271429Y-106878328D02*
X106128572Y-106949757D01*
X106128572Y-106949757D02*
X106057144Y-107021185D01*
X106057144Y-107021185D02*
X105914286Y-107235471D01*
X105914286Y-107235471D02*
X105842858Y-107521185D01*
X105842858Y-107521185D02*
X105842858Y-108092614D01*
X105842858Y-108092614D02*
X105914286Y-108235471D01*
X105914286Y-108235471D02*
X105985715Y-108306900D01*
X105985715Y-108306900D02*
X106128572Y-108378328D01*
X106128572Y-108378328D02*
X106414286Y-108378328D01*
X106414286Y-108378328D02*
X106557144Y-108306900D01*
X106557144Y-108306900D02*
X106628572Y-108235471D01*
X106628572Y-108235471D02*
X106700001Y-108092614D01*
X106700001Y-108092614D02*
X106700001Y-107735471D01*
X106700001Y-107735471D02*
X106628572Y-107592614D01*
X106628572Y-107592614D02*
X106557144Y-107521185D01*
X106557144Y-107521185D02*
X106414286Y-107449757D01*
X106414286Y-107449757D02*
X106128572Y-107449757D01*
X106128572Y-107449757D02*
X105985715Y-107521185D01*
X105985715Y-107521185D02*
X105914286Y-107592614D01*
X105914286Y-107592614D02*
X105842858Y-107735471D01*
X107628572Y-106878328D02*
X107771429Y-106878328D01*
X107771429Y-106878328D02*
X107914286Y-106949757D01*
X107914286Y-106949757D02*
X107985715Y-107021185D01*
X107985715Y-107021185D02*
X108057143Y-107164042D01*
X108057143Y-107164042D02*
X108128572Y-107449757D01*
X108128572Y-107449757D02*
X108128572Y-107806900D01*
X108128572Y-107806900D02*
X108057143Y-108092614D01*
X108057143Y-108092614D02*
X107985715Y-108235471D01*
X107985715Y-108235471D02*
X107914286Y-108306900D01*
X107914286Y-108306900D02*
X107771429Y-108378328D01*
X107771429Y-108378328D02*
X107628572Y-108378328D01*
X107628572Y-108378328D02*
X107485715Y-108306900D01*
X107485715Y-108306900D02*
X107414286Y-108235471D01*
X107414286Y-108235471D02*
X107342857Y-108092614D01*
X107342857Y-108092614D02*
X107271429Y-107806900D01*
X107271429Y-107806900D02*
X107271429Y-107449757D01*
X107271429Y-107449757D02*
X107342857Y-107164042D01*
X107342857Y-107164042D02*
X107414286Y-107021185D01*
X107414286Y-107021185D02*
X107485715Y-106949757D01*
X107485715Y-106949757D02*
X107628572Y-106878328D01*
X109057143Y-106878328D02*
X109200000Y-106878328D01*
X109200000Y-106878328D02*
X109342857Y-106949757D01*
X109342857Y-106949757D02*
X109414286Y-107021185D01*
X109414286Y-107021185D02*
X109485714Y-107164042D01*
X109485714Y-107164042D02*
X109557143Y-107449757D01*
X109557143Y-107449757D02*
X109557143Y-107806900D01*
X109557143Y-107806900D02*
X109485714Y-108092614D01*
X109485714Y-108092614D02*
X109414286Y-108235471D01*
X109414286Y-108235471D02*
X109342857Y-108306900D01*
X109342857Y-108306900D02*
X109200000Y-108378328D01*
X109200000Y-108378328D02*
X109057143Y-108378328D01*
X109057143Y-108378328D02*
X108914286Y-108306900D01*
X108914286Y-108306900D02*
X108842857Y-108235471D01*
X108842857Y-108235471D02*
X108771428Y-108092614D01*
X108771428Y-108092614D02*
X108700000Y-107806900D01*
X108700000Y-107806900D02*
X108700000Y-107449757D01*
X108700000Y-107449757D02*
X108771428Y-107164042D01*
X108771428Y-107164042D02*
X108842857Y-107021185D01*
X108842857Y-107021185D02*
X108914286Y-106949757D01*
X108914286Y-106949757D02*
X109057143Y-106878328D01*
X110485714Y-106878328D02*
X110628571Y-106878328D01*
X110628571Y-106878328D02*
X110771428Y-106949757D01*
X110771428Y-106949757D02*
X110842857Y-107021185D01*
X110842857Y-107021185D02*
X110914285Y-107164042D01*
X110914285Y-107164042D02*
X110985714Y-107449757D01*
X110985714Y-107449757D02*
X110985714Y-107806900D01*
X110985714Y-107806900D02*
X110914285Y-108092614D01*
X110914285Y-108092614D02*
X110842857Y-108235471D01*
X110842857Y-108235471D02*
X110771428Y-108306900D01*
X110771428Y-108306900D02*
X110628571Y-108378328D01*
X110628571Y-108378328D02*
X110485714Y-108378328D01*
X110485714Y-108378328D02*
X110342857Y-108306900D01*
X110342857Y-108306900D02*
X110271428Y-108235471D01*
X110271428Y-108235471D02*
X110199999Y-108092614D01*
X110199999Y-108092614D02*
X110128571Y-107806900D01*
X110128571Y-107806900D02*
X110128571Y-107449757D01*
X110128571Y-107449757D02*
X110199999Y-107164042D01*
X110199999Y-107164042D02*
X110271428Y-107021185D01*
X110271428Y-107021185D02*
X110342857Y-106949757D01*
X110342857Y-106949757D02*
X110485714Y-106878328D01*
X112771427Y-108378328D02*
X112771427Y-107378328D01*
X112771427Y-107521185D02*
X112842856Y-107449757D01*
X112842856Y-107449757D02*
X112985713Y-107378328D01*
X112985713Y-107378328D02*
X113199999Y-107378328D01*
X113199999Y-107378328D02*
X113342856Y-107449757D01*
X113342856Y-107449757D02*
X113414285Y-107592614D01*
X113414285Y-107592614D02*
X113414285Y-108378328D01*
X113414285Y-107592614D02*
X113485713Y-107449757D01*
X113485713Y-107449757D02*
X113628570Y-107378328D01*
X113628570Y-107378328D02*
X113842856Y-107378328D01*
X113842856Y-107378328D02*
X113985713Y-107449757D01*
X113985713Y-107449757D02*
X114057142Y-107592614D01*
X114057142Y-107592614D02*
X114057142Y-108378328D01*
X114771427Y-108378328D02*
X114771427Y-107378328D01*
X114771427Y-107521185D02*
X114842856Y-107449757D01*
X114842856Y-107449757D02*
X114985713Y-107378328D01*
X114985713Y-107378328D02*
X115199999Y-107378328D01*
X115199999Y-107378328D02*
X115342856Y-107449757D01*
X115342856Y-107449757D02*
X115414285Y-107592614D01*
X115414285Y-107592614D02*
X115414285Y-108378328D01*
X115414285Y-107592614D02*
X115485713Y-107449757D01*
X115485713Y-107449757D02*
X115628570Y-107378328D01*
X115628570Y-107378328D02*
X115842856Y-107378328D01*
X115842856Y-107378328D02*
X115985713Y-107449757D01*
X115985713Y-107449757D02*
X116057142Y-107592614D01*
X116057142Y-107592614D02*
X116057142Y-108378328D01*
D12*
X127000000Y-104300000D02*
X127000000Y-110086420D01*
X91400000Y-104300000D02*
X91400000Y-110086420D01*
X127000000Y-109500000D02*
X91400000Y-109500000D01*
X127000000Y-109500000D02*
X91400000Y-109500000D01*
X127000000Y-109500000D02*
X125873496Y-110086421D01*
X127000000Y-109500000D02*
X125873496Y-108913579D01*
X91400000Y-109500000D02*
X92526504Y-108913579D01*
X91400000Y-109500000D02*
X92526504Y-110086421D01*
D13*
%TO.P,J3,1,Pin_1*%
%TO.N,Battery(+)*%
X95800000Y-89480000D03*
D14*
%TO.P,J3,2,Pin_2*%
X95800000Y-84400000D03*
%TD*%
D13*
%TO.P,J5,1,Pin_1*%
%TO.N,GND*%
X118800000Y-84360000D03*
D14*
%TO.P,J5,2,Pin_2*%
%TO.N,+5V*%
X118800000Y-89440000D03*
%TO.P,J5,3,Pin_3*%
%TO.N,IOut*%
X118800000Y-94520000D03*
%TO.P,J5,4,Pin_4*%
%TO.N,Vsens*%
X118800000Y-99600000D03*
%TD*%
D13*
%TO.P,J4,1,Pin_1*%
%TO.N,Battery(-)*%
X95800000Y-100080000D03*
D14*
%TO.P,J4,2,Pin_2*%
X95800000Y-95000000D03*
%TD*%
D13*
%TO.P,J1,1,Pin_1*%
%TO.N,IN-*%
X111740000Y-99400000D03*
D14*
%TO.P,J1,2,Pin_2*%
%TO.N,IN+*%
X106660000Y-99400000D03*
%TD*%
D15*
%TO.P,R4,1*%
%TO.N,VIOUT*%
X114325000Y-90000000D03*
%TO.P,R4,2*%
%TO.N,IOut*%
X112500000Y-90000000D03*
%TD*%
%TO.P,R5,1*%
%TO.N,IOut*%
X110625000Y-90000000D03*
%TO.P,R5,2*%
%TO.N,GND*%
X108800000Y-90000000D03*
%TD*%
D16*
%TO.N,GND*%
X113600000Y-93800000D03*
X114500000Y-93800000D03*
X113600000Y-94800000D03*
X114500000Y-94800000D03*
X114500000Y-92800000D03*
X113600000Y-92800000D03*
%TO.N,VIOUT*%
X115800000Y-90700000D03*
%TD*%
D17*
%TO.N,VIOUT*%
X115100000Y-90000000D02*
X115800000Y-90700000D01*
X114325000Y-90000000D02*
X115100000Y-90000000D01*
X115700000Y-90800000D02*
X115800000Y-90700000D01*
%TO.N,IOut*%
X111600000Y-91400000D02*
X112000000Y-91800000D01*
X116100000Y-92700000D02*
X116100000Y-94000000D01*
X115200000Y-91800000D02*
X116100000Y-92700000D01*
X116620000Y-94520000D02*
X118800000Y-94520000D01*
X112000000Y-91800000D02*
X115200000Y-91800000D01*
X116100000Y-94000000D02*
X116620000Y-94520000D01*
X111600000Y-90000000D02*
X112500000Y-90000000D01*
X110625000Y-90000000D02*
X111600000Y-90000000D01*
X111600000Y-90000000D02*
X111600000Y-91400000D01*
%TD*%
%TA.AperFunction,Conductor*%
%TO.N,GND*%
G36*
X126852678Y-81220185D02*
G01*
X126898433Y-81272989D01*
X126908578Y-81308315D01*
X126914955Y-81356760D01*
X126914957Y-81356765D01*
X126975461Y-81502836D01*
X126979526Y-81509876D01*
X126977783Y-81510882D01*
X126999069Y-81565932D01*
X126999500Y-81576257D01*
X126999500Y-87376000D01*
X126979815Y-87443039D01*
X126927011Y-87488794D01*
X126875500Y-87500000D01*
X119306521Y-87500000D01*
X119280165Y-87497166D01*
X119195948Y-87478846D01*
X119085430Y-87454804D01*
X119085433Y-87454804D01*
X118800001Y-87434390D01*
X118799999Y-87434390D01*
X118514568Y-87454804D01*
X118373560Y-87485479D01*
X118319834Y-87497166D01*
X118293479Y-87500000D01*
X115600000Y-87500000D01*
X115600000Y-89346042D01*
X115580315Y-89413081D01*
X115527511Y-89458836D01*
X115458353Y-89468780D01*
X115426754Y-89459844D01*
X115386101Y-89442252D01*
X115332393Y-89397562D01*
X115317641Y-89367454D01*
X115310546Y-89346042D01*
X115272314Y-89230666D01*
X115180212Y-89081344D01*
X115056156Y-88957288D01*
X114906834Y-88865186D01*
X114740297Y-88810001D01*
X114740295Y-88810000D01*
X114637510Y-88799500D01*
X114012498Y-88799500D01*
X114012480Y-88799501D01*
X113909703Y-88810000D01*
X113909700Y-88810001D01*
X113743168Y-88865185D01*
X113743163Y-88865187D01*
X113593842Y-88957289D01*
X113500181Y-89050951D01*
X113438858Y-89084436D01*
X113369166Y-89079452D01*
X113324819Y-89050951D01*
X113231157Y-88957289D01*
X113231156Y-88957288D01*
X113081834Y-88865186D01*
X112915297Y-88810001D01*
X112915295Y-88810000D01*
X112812510Y-88799500D01*
X112187498Y-88799500D01*
X112187480Y-88799501D01*
X112084703Y-88810000D01*
X112084700Y-88810001D01*
X111918168Y-88865185D01*
X111918163Y-88865187D01*
X111768842Y-88957289D01*
X111650181Y-89075951D01*
X111588858Y-89109436D01*
X111519166Y-89104452D01*
X111474819Y-89075951D01*
X111356157Y-88957289D01*
X111356156Y-88957288D01*
X111206834Y-88865186D01*
X111040297Y-88810001D01*
X111040295Y-88810000D01*
X110937510Y-88799500D01*
X110312498Y-88799500D01*
X110312480Y-88799501D01*
X110209703Y-88810000D01*
X110209700Y-88810001D01*
X110043168Y-88865185D01*
X110043163Y-88865187D01*
X109893842Y-88957289D01*
X109769789Y-89081342D01*
X109677687Y-89230663D01*
X109677686Y-89230666D01*
X109622501Y-89397203D01*
X109622501Y-89397204D01*
X109622500Y-89397204D01*
X109612000Y-89499983D01*
X109612000Y-90500001D01*
X109612001Y-90500019D01*
X109622500Y-90602796D01*
X109622501Y-90602799D01*
X109654711Y-90700000D01*
X109677686Y-90769334D01*
X109769788Y-90918656D01*
X109893844Y-91042712D01*
X110043166Y-91134814D01*
X110209703Y-91189999D01*
X110312491Y-91200500D01*
X110849302Y-91200499D01*
X110916341Y-91220183D01*
X110962096Y-91272987D01*
X110972752Y-91336164D01*
X110972326Y-91340662D01*
X110974500Y-91409814D01*
X110974500Y-91439343D01*
X110974501Y-91439360D01*
X110975368Y-91446231D01*
X110975826Y-91452050D01*
X110977290Y-91498624D01*
X110977291Y-91498627D01*
X110982880Y-91517867D01*
X110986824Y-91536911D01*
X110989336Y-91556791D01*
X111006490Y-91600119D01*
X111008382Y-91605647D01*
X111021381Y-91650388D01*
X111031580Y-91667634D01*
X111040138Y-91685103D01*
X111047514Y-91703732D01*
X111074898Y-91741423D01*
X111078106Y-91746307D01*
X111101827Y-91786416D01*
X111101833Y-91786424D01*
X111115990Y-91800580D01*
X111128628Y-91815376D01*
X111140405Y-91831586D01*
X111140406Y-91831587D01*
X111176309Y-91861288D01*
X111180620Y-91865210D01*
X111499194Y-92183784D01*
X111509017Y-92196045D01*
X111509239Y-92195863D01*
X111514212Y-92201875D01*
X111564636Y-92249227D01*
X111585523Y-92270115D01*
X111585527Y-92270118D01*
X111585529Y-92270120D01*
X111591011Y-92274373D01*
X111595443Y-92278157D01*
X111629418Y-92310062D01*
X111646976Y-92319714D01*
X111663235Y-92330395D01*
X111679064Y-92342673D01*
X111721838Y-92361182D01*
X111727056Y-92363738D01*
X111767908Y-92386197D01*
X111787316Y-92391180D01*
X111805717Y-92397480D01*
X111824104Y-92405437D01*
X111867488Y-92412308D01*
X111870119Y-92412725D01*
X111875839Y-92413909D01*
X111920981Y-92425500D01*
X111941016Y-92425500D01*
X111960414Y-92427026D01*
X111980194Y-92430159D01*
X111980195Y-92430160D01*
X111980195Y-92430159D01*
X111980196Y-92430160D01*
X112026584Y-92425775D01*
X112032422Y-92425500D01*
X114889548Y-92425500D01*
X114956587Y-92445185D01*
X114977229Y-92461819D01*
X115438181Y-92922771D01*
X115471666Y-92984094D01*
X115474500Y-93010452D01*
X115474500Y-93917255D01*
X115472775Y-93932872D01*
X115473061Y-93932899D01*
X115472326Y-93940665D01*
X115474500Y-94009814D01*
X115474500Y-94039343D01*
X115474501Y-94039360D01*
X115475368Y-94046231D01*
X115475826Y-94052050D01*
X115477290Y-94098624D01*
X115477291Y-94098627D01*
X115482880Y-94117867D01*
X115486824Y-94136911D01*
X115489336Y-94156791D01*
X115506490Y-94200119D01*
X115508382Y-94205647D01*
X115521381Y-94250388D01*
X115531580Y-94267634D01*
X115540138Y-94285103D01*
X115547514Y-94303732D01*
X115574901Y-94341427D01*
X115578105Y-94346304D01*
X115582724Y-94354115D01*
X115600000Y-94417247D01*
X115600000Y-95572900D01*
X115580315Y-95639939D01*
X115527511Y-95685694D01*
X115472939Y-95696862D01*
X107620939Y-95502986D01*
X107554406Y-95481653D01*
X107509969Y-95427736D01*
X107500000Y-95379024D01*
X107500000Y-81324500D01*
X107519685Y-81257461D01*
X107572489Y-81211706D01*
X107624000Y-81200500D01*
X126785639Y-81200500D01*
X126852678Y-81220185D01*
G37*
%TD.AperFunction*%
%TD*%
M02*
