%TF.GenerationSoftware,KiCad,Pcbnew,7.0.8*%
%TF.CreationDate,2024-03-30T04:59:33+03:00*%
%TF.ProjectId,PowerSensor,506f7765-7253-4656-9e73-6f722e6b6963,rev?*%
%TF.SameCoordinates,Original*%
%TF.FileFunction,Legend,Top*%
%TF.FilePolarity,Positive*%
%FSLAX46Y46*%
G04 Gerber Fmt 4.6, Leading zero omitted, Abs format (unit mm)*
G04 Created by KiCad (PCBNEW 7.0.8) date 2024-03-30 04:59:33*
%MOMM*%
%LPD*%
G01*
G04 APERTURE LIST*
%ADD10C,0.150000*%
%ADD11C,0.250000*%
%ADD12C,0.120000*%
G04 APERTURE END LIST*
D10*
X125069819Y-96663220D02*
X124069819Y-96663220D01*
X125022200Y-96234649D02*
X125069819Y-96091792D01*
X125069819Y-96091792D02*
X125069819Y-95853697D01*
X125069819Y-95853697D02*
X125022200Y-95758459D01*
X125022200Y-95758459D02*
X124974580Y-95710840D01*
X124974580Y-95710840D02*
X124879342Y-95663221D01*
X124879342Y-95663221D02*
X124784104Y-95663221D01*
X124784104Y-95663221D02*
X124688866Y-95710840D01*
X124688866Y-95710840D02*
X124641247Y-95758459D01*
X124641247Y-95758459D02*
X124593628Y-95853697D01*
X124593628Y-95853697D02*
X124546009Y-96044173D01*
X124546009Y-96044173D02*
X124498390Y-96139411D01*
X124498390Y-96139411D02*
X124450771Y-96187030D01*
X124450771Y-96187030D02*
X124355533Y-96234649D01*
X124355533Y-96234649D02*
X124260295Y-96234649D01*
X124260295Y-96234649D02*
X124165057Y-96187030D01*
X124165057Y-96187030D02*
X124117438Y-96139411D01*
X124117438Y-96139411D02*
X124069819Y-96044173D01*
X124069819Y-96044173D02*
X124069819Y-95806078D01*
X124069819Y-95806078D02*
X124117438Y-95663221D01*
X125022200Y-94853697D02*
X125069819Y-94948935D01*
X125069819Y-94948935D02*
X125069819Y-95139411D01*
X125069819Y-95139411D02*
X125022200Y-95234649D01*
X125022200Y-95234649D02*
X124926961Y-95282268D01*
X124926961Y-95282268D02*
X124546009Y-95282268D01*
X124546009Y-95282268D02*
X124450771Y-95234649D01*
X124450771Y-95234649D02*
X124403152Y-95139411D01*
X124403152Y-95139411D02*
X124403152Y-94948935D01*
X124403152Y-94948935D02*
X124450771Y-94853697D01*
X124450771Y-94853697D02*
X124546009Y-94806078D01*
X124546009Y-94806078D02*
X124641247Y-94806078D01*
X124641247Y-94806078D02*
X124736485Y-95282268D01*
X124403152Y-94377506D02*
X125069819Y-94377506D01*
X124498390Y-94377506D02*
X124450771Y-94329887D01*
X124450771Y-94329887D02*
X124403152Y-94234649D01*
X124403152Y-94234649D02*
X124403152Y-94091792D01*
X124403152Y-94091792D02*
X124450771Y-93996554D01*
X124450771Y-93996554D02*
X124546009Y-93948935D01*
X124546009Y-93948935D02*
X125069819Y-93948935D01*
X125022200Y-93520363D02*
X125069819Y-93425125D01*
X125069819Y-93425125D02*
X125069819Y-93234649D01*
X125069819Y-93234649D02*
X125022200Y-93139411D01*
X125022200Y-93139411D02*
X124926961Y-93091792D01*
X124926961Y-93091792D02*
X124879342Y-93091792D01*
X124879342Y-93091792D02*
X124784104Y-93139411D01*
X124784104Y-93139411D02*
X124736485Y-93234649D01*
X124736485Y-93234649D02*
X124736485Y-93377506D01*
X124736485Y-93377506D02*
X124688866Y-93472744D01*
X124688866Y-93472744D02*
X124593628Y-93520363D01*
X124593628Y-93520363D02*
X124546009Y-93520363D01*
X124546009Y-93520363D02*
X124450771Y-93472744D01*
X124450771Y-93472744D02*
X124403152Y-93377506D01*
X124403152Y-93377506D02*
X124403152Y-93234649D01*
X124403152Y-93234649D02*
X124450771Y-93139411D01*
X124117438Y-84939411D02*
X124069819Y-85034649D01*
X124069819Y-85034649D02*
X124069819Y-85177506D01*
X124069819Y-85177506D02*
X124117438Y-85320363D01*
X124117438Y-85320363D02*
X124212676Y-85415601D01*
X124212676Y-85415601D02*
X124307914Y-85463220D01*
X124307914Y-85463220D02*
X124498390Y-85510839D01*
X124498390Y-85510839D02*
X124641247Y-85510839D01*
X124641247Y-85510839D02*
X124831723Y-85463220D01*
X124831723Y-85463220D02*
X124926961Y-85415601D01*
X124926961Y-85415601D02*
X125022200Y-85320363D01*
X125022200Y-85320363D02*
X125069819Y-85177506D01*
X125069819Y-85177506D02*
X125069819Y-85082268D01*
X125069819Y-85082268D02*
X125022200Y-84939411D01*
X125022200Y-84939411D02*
X124974580Y-84891792D01*
X124974580Y-84891792D02*
X124641247Y-84891792D01*
X124641247Y-84891792D02*
X124641247Y-85082268D01*
X125069819Y-84463220D02*
X124069819Y-84463220D01*
X124069819Y-84463220D02*
X125069819Y-83891792D01*
X125069819Y-83891792D02*
X124069819Y-83891792D01*
X125069819Y-83415601D02*
X124069819Y-83415601D01*
X124069819Y-83415601D02*
X124069819Y-83177506D01*
X124069819Y-83177506D02*
X124117438Y-83034649D01*
X124117438Y-83034649D02*
X124212676Y-82939411D01*
X124212676Y-82939411D02*
X124307914Y-82891792D01*
X124307914Y-82891792D02*
X124498390Y-82844173D01*
X124498390Y-82844173D02*
X124641247Y-82844173D01*
X124641247Y-82844173D02*
X124831723Y-82891792D01*
X124831723Y-82891792D02*
X124926961Y-82939411D01*
X124926961Y-82939411D02*
X125022200Y-83034649D01*
X125022200Y-83034649D02*
X125069819Y-83177506D01*
X125069819Y-83177506D02*
X125069819Y-83415601D01*
X124688866Y-90863220D02*
X124688866Y-90101316D01*
X125069819Y-90482268D02*
X124307914Y-90482268D01*
X124069819Y-89148935D02*
X124069819Y-89625125D01*
X124069819Y-89625125D02*
X124546009Y-89672744D01*
X124546009Y-89672744D02*
X124498390Y-89625125D01*
X124498390Y-89625125D02*
X124450771Y-89529887D01*
X124450771Y-89529887D02*
X124450771Y-89291792D01*
X124450771Y-89291792D02*
X124498390Y-89196554D01*
X124498390Y-89196554D02*
X124546009Y-89148935D01*
X124546009Y-89148935D02*
X124641247Y-89101316D01*
X124641247Y-89101316D02*
X124879342Y-89101316D01*
X124879342Y-89101316D02*
X124974580Y-89148935D01*
X124974580Y-89148935D02*
X125022200Y-89196554D01*
X125022200Y-89196554D02*
X125069819Y-89291792D01*
X125069819Y-89291792D02*
X125069819Y-89529887D01*
X125069819Y-89529887D02*
X125022200Y-89625125D01*
X125022200Y-89625125D02*
X124974580Y-89672744D01*
X124069819Y-88815601D02*
X125069819Y-88482268D01*
X125069819Y-88482268D02*
X124069819Y-88148935D01*
D11*
X100735901Y-82140809D02*
X100878758Y-82188428D01*
X100878758Y-82188428D02*
X100926377Y-82236047D01*
X100926377Y-82236047D02*
X100973996Y-82331285D01*
X100973996Y-82331285D02*
X100973996Y-82474142D01*
X100973996Y-82474142D02*
X100926377Y-82569380D01*
X100926377Y-82569380D02*
X100878758Y-82617000D01*
X100878758Y-82617000D02*
X100783520Y-82664619D01*
X100783520Y-82664619D02*
X100402568Y-82664619D01*
X100402568Y-82664619D02*
X100402568Y-81664619D01*
X100402568Y-81664619D02*
X100735901Y-81664619D01*
X100735901Y-81664619D02*
X100831139Y-81712238D01*
X100831139Y-81712238D02*
X100878758Y-81759857D01*
X100878758Y-81759857D02*
X100926377Y-81855095D01*
X100926377Y-81855095D02*
X100926377Y-81950333D01*
X100926377Y-81950333D02*
X100878758Y-82045571D01*
X100878758Y-82045571D02*
X100831139Y-82093190D01*
X100831139Y-82093190D02*
X100735901Y-82140809D01*
X100735901Y-82140809D02*
X100402568Y-82140809D01*
X101354949Y-82378904D02*
X101831139Y-82378904D01*
X101259711Y-82664619D02*
X101593044Y-81664619D01*
X101593044Y-81664619D02*
X101926377Y-82664619D01*
X102116854Y-81664619D02*
X102688282Y-81664619D01*
X102402568Y-82664619D02*
X102402568Y-81664619D01*
X103021616Y-82283666D02*
X103783521Y-82283666D01*
X103402568Y-82664619D02*
X103402568Y-81902714D01*
X100935901Y-92940809D02*
X101078758Y-92988428D01*
X101078758Y-92988428D02*
X101126377Y-93036047D01*
X101126377Y-93036047D02*
X101173996Y-93131285D01*
X101173996Y-93131285D02*
X101173996Y-93274142D01*
X101173996Y-93274142D02*
X101126377Y-93369380D01*
X101126377Y-93369380D02*
X101078758Y-93417000D01*
X101078758Y-93417000D02*
X100983520Y-93464619D01*
X100983520Y-93464619D02*
X100602568Y-93464619D01*
X100602568Y-93464619D02*
X100602568Y-92464619D01*
X100602568Y-92464619D02*
X100935901Y-92464619D01*
X100935901Y-92464619D02*
X101031139Y-92512238D01*
X101031139Y-92512238D02*
X101078758Y-92559857D01*
X101078758Y-92559857D02*
X101126377Y-92655095D01*
X101126377Y-92655095D02*
X101126377Y-92750333D01*
X101126377Y-92750333D02*
X101078758Y-92845571D01*
X101078758Y-92845571D02*
X101031139Y-92893190D01*
X101031139Y-92893190D02*
X100935901Y-92940809D01*
X100935901Y-92940809D02*
X100602568Y-92940809D01*
X101554949Y-93178904D02*
X102031139Y-93178904D01*
X101459711Y-93464619D02*
X101793044Y-92464619D01*
X101793044Y-92464619D02*
X102126377Y-93464619D01*
X102316854Y-92464619D02*
X102888282Y-92464619D01*
X102602568Y-93464619D02*
X102602568Y-92464619D01*
X103221616Y-93083666D02*
X103983521Y-93083666D01*
D10*
X124069819Y-102806077D02*
X125069819Y-102472744D01*
X125069819Y-102472744D02*
X124069819Y-102139411D01*
X125022200Y-101853696D02*
X125069819Y-101710839D01*
X125069819Y-101710839D02*
X125069819Y-101472744D01*
X125069819Y-101472744D02*
X125022200Y-101377506D01*
X125022200Y-101377506D02*
X124974580Y-101329887D01*
X124974580Y-101329887D02*
X124879342Y-101282268D01*
X124879342Y-101282268D02*
X124784104Y-101282268D01*
X124784104Y-101282268D02*
X124688866Y-101329887D01*
X124688866Y-101329887D02*
X124641247Y-101377506D01*
X124641247Y-101377506D02*
X124593628Y-101472744D01*
X124593628Y-101472744D02*
X124546009Y-101663220D01*
X124546009Y-101663220D02*
X124498390Y-101758458D01*
X124498390Y-101758458D02*
X124450771Y-101806077D01*
X124450771Y-101806077D02*
X124355533Y-101853696D01*
X124355533Y-101853696D02*
X124260295Y-101853696D01*
X124260295Y-101853696D02*
X124165057Y-101806077D01*
X124165057Y-101806077D02*
X124117438Y-101758458D01*
X124117438Y-101758458D02*
X124069819Y-101663220D01*
X124069819Y-101663220D02*
X124069819Y-101425125D01*
X124069819Y-101425125D02*
X124117438Y-101282268D01*
X125022200Y-100472744D02*
X125069819Y-100567982D01*
X125069819Y-100567982D02*
X125069819Y-100758458D01*
X125069819Y-100758458D02*
X125022200Y-100853696D01*
X125022200Y-100853696D02*
X124926961Y-100901315D01*
X124926961Y-100901315D02*
X124546009Y-100901315D01*
X124546009Y-100901315D02*
X124450771Y-100853696D01*
X124450771Y-100853696D02*
X124403152Y-100758458D01*
X124403152Y-100758458D02*
X124403152Y-100567982D01*
X124403152Y-100567982D02*
X124450771Y-100472744D01*
X124450771Y-100472744D02*
X124546009Y-100425125D01*
X124546009Y-100425125D02*
X124641247Y-100425125D01*
X124641247Y-100425125D02*
X124736485Y-100901315D01*
X124403152Y-99996553D02*
X125069819Y-99996553D01*
X124498390Y-99996553D02*
X124450771Y-99948934D01*
X124450771Y-99948934D02*
X124403152Y-99853696D01*
X124403152Y-99853696D02*
X124403152Y-99710839D01*
X124403152Y-99710839D02*
X124450771Y-99615601D01*
X124450771Y-99615601D02*
X124546009Y-99567982D01*
X124546009Y-99567982D02*
X125069819Y-99567982D01*
X125022200Y-99139410D02*
X125069819Y-99044172D01*
X125069819Y-99044172D02*
X125069819Y-98853696D01*
X125069819Y-98853696D02*
X125022200Y-98758458D01*
X125022200Y-98758458D02*
X124926961Y-98710839D01*
X124926961Y-98710839D02*
X124879342Y-98710839D01*
X124879342Y-98710839D02*
X124784104Y-98758458D01*
X124784104Y-98758458D02*
X124736485Y-98853696D01*
X124736485Y-98853696D02*
X124736485Y-98996553D01*
X124736485Y-98996553D02*
X124688866Y-99091791D01*
X124688866Y-99091791D02*
X124593628Y-99139410D01*
X124593628Y-99139410D02*
X124546009Y-99139410D01*
X124546009Y-99139410D02*
X124450771Y-99091791D01*
X124450771Y-99091791D02*
X124403152Y-98996553D01*
X124403152Y-98996553D02*
X124403152Y-98853696D01*
X124403152Y-98853696D02*
X124450771Y-98758458D01*
X92654819Y-90333333D02*
X93369104Y-90333333D01*
X93369104Y-90333333D02*
X93511961Y-90380952D01*
X93511961Y-90380952D02*
X93607200Y-90476190D01*
X93607200Y-90476190D02*
X93654819Y-90619047D01*
X93654819Y-90619047D02*
X93654819Y-90714285D01*
X92654819Y-89952380D02*
X92654819Y-89333333D01*
X92654819Y-89333333D02*
X93035771Y-89666666D01*
X93035771Y-89666666D02*
X93035771Y-89523809D01*
X93035771Y-89523809D02*
X93083390Y-89428571D01*
X93083390Y-89428571D02*
X93131009Y-89380952D01*
X93131009Y-89380952D02*
X93226247Y-89333333D01*
X93226247Y-89333333D02*
X93464342Y-89333333D01*
X93464342Y-89333333D02*
X93559580Y-89380952D01*
X93559580Y-89380952D02*
X93607200Y-89428571D01*
X93607200Y-89428571D02*
X93654819Y-89523809D01*
X93654819Y-89523809D02*
X93654819Y-89809523D01*
X93654819Y-89809523D02*
X93607200Y-89904761D01*
X93607200Y-89904761D02*
X93559580Y-89952380D01*
X112559580Y-84166666D02*
X112607200Y-84214285D01*
X112607200Y-84214285D02*
X112654819Y-84357142D01*
X112654819Y-84357142D02*
X112654819Y-84452380D01*
X112654819Y-84452380D02*
X112607200Y-84595237D01*
X112607200Y-84595237D02*
X112511961Y-84690475D01*
X112511961Y-84690475D02*
X112416723Y-84738094D01*
X112416723Y-84738094D02*
X112226247Y-84785713D01*
X112226247Y-84785713D02*
X112083390Y-84785713D01*
X112083390Y-84785713D02*
X111892914Y-84738094D01*
X111892914Y-84738094D02*
X111797676Y-84690475D01*
X111797676Y-84690475D02*
X111702438Y-84595237D01*
X111702438Y-84595237D02*
X111654819Y-84452380D01*
X111654819Y-84452380D02*
X111654819Y-84357142D01*
X111654819Y-84357142D02*
X111702438Y-84214285D01*
X111702438Y-84214285D02*
X111750057Y-84166666D01*
X111654819Y-83833332D02*
X111654819Y-83214285D01*
X111654819Y-83214285D02*
X112035771Y-83547618D01*
X112035771Y-83547618D02*
X112035771Y-83404761D01*
X112035771Y-83404761D02*
X112083390Y-83309523D01*
X112083390Y-83309523D02*
X112131009Y-83261904D01*
X112131009Y-83261904D02*
X112226247Y-83214285D01*
X112226247Y-83214285D02*
X112464342Y-83214285D01*
X112464342Y-83214285D02*
X112559580Y-83261904D01*
X112559580Y-83261904D02*
X112607200Y-83309523D01*
X112607200Y-83309523D02*
X112654819Y-83404761D01*
X112654819Y-83404761D02*
X112654819Y-83690475D01*
X112654819Y-83690475D02*
X112607200Y-83785713D01*
X112607200Y-83785713D02*
X112559580Y-83833332D01*
X110159580Y-84166666D02*
X110207200Y-84214285D01*
X110207200Y-84214285D02*
X110254819Y-84357142D01*
X110254819Y-84357142D02*
X110254819Y-84452380D01*
X110254819Y-84452380D02*
X110207200Y-84595237D01*
X110207200Y-84595237D02*
X110111961Y-84690475D01*
X110111961Y-84690475D02*
X110016723Y-84738094D01*
X110016723Y-84738094D02*
X109826247Y-84785713D01*
X109826247Y-84785713D02*
X109683390Y-84785713D01*
X109683390Y-84785713D02*
X109492914Y-84738094D01*
X109492914Y-84738094D02*
X109397676Y-84690475D01*
X109397676Y-84690475D02*
X109302438Y-84595237D01*
X109302438Y-84595237D02*
X109254819Y-84452380D01*
X109254819Y-84452380D02*
X109254819Y-84357142D01*
X109254819Y-84357142D02*
X109302438Y-84214285D01*
X109302438Y-84214285D02*
X109350057Y-84166666D01*
X110254819Y-83214285D02*
X110254819Y-83785713D01*
X110254819Y-83499999D02*
X109254819Y-83499999D01*
X109254819Y-83499999D02*
X109397676Y-83595237D01*
X109397676Y-83595237D02*
X109492914Y-83690475D01*
X109492914Y-83690475D02*
X109540533Y-83785713D01*
X105854819Y-84738094D02*
X104854819Y-84738094D01*
X104854819Y-84738094D02*
X104854819Y-84499999D01*
X104854819Y-84499999D02*
X104902438Y-84357142D01*
X104902438Y-84357142D02*
X104997676Y-84261904D01*
X104997676Y-84261904D02*
X105092914Y-84214285D01*
X105092914Y-84214285D02*
X105283390Y-84166666D01*
X105283390Y-84166666D02*
X105426247Y-84166666D01*
X105426247Y-84166666D02*
X105616723Y-84214285D01*
X105616723Y-84214285D02*
X105711961Y-84261904D01*
X105711961Y-84261904D02*
X105807200Y-84357142D01*
X105807200Y-84357142D02*
X105854819Y-84499999D01*
X105854819Y-84499999D02*
X105854819Y-84738094D01*
X105854819Y-83214285D02*
X105854819Y-83785713D01*
X105854819Y-83499999D02*
X104854819Y-83499999D01*
X104854819Y-83499999D02*
X104997676Y-83595237D01*
X104997676Y-83595237D02*
X105092914Y-83690475D01*
X105092914Y-83690475D02*
X105140533Y-83785713D01*
X103159580Y-84166666D02*
X103207200Y-84214285D01*
X103207200Y-84214285D02*
X103254819Y-84357142D01*
X103254819Y-84357142D02*
X103254819Y-84452380D01*
X103254819Y-84452380D02*
X103207200Y-84595237D01*
X103207200Y-84595237D02*
X103111961Y-84690475D01*
X103111961Y-84690475D02*
X103016723Y-84738094D01*
X103016723Y-84738094D02*
X102826247Y-84785713D01*
X102826247Y-84785713D02*
X102683390Y-84785713D01*
X102683390Y-84785713D02*
X102492914Y-84738094D01*
X102492914Y-84738094D02*
X102397676Y-84690475D01*
X102397676Y-84690475D02*
X102302438Y-84595237D01*
X102302438Y-84595237D02*
X102254819Y-84452380D01*
X102254819Y-84452380D02*
X102254819Y-84357142D01*
X102254819Y-84357142D02*
X102302438Y-84214285D01*
X102302438Y-84214285D02*
X102350057Y-84166666D01*
X102350057Y-83785713D02*
X102302438Y-83738094D01*
X102302438Y-83738094D02*
X102254819Y-83642856D01*
X102254819Y-83642856D02*
X102254819Y-83404761D01*
X102254819Y-83404761D02*
X102302438Y-83309523D01*
X102302438Y-83309523D02*
X102350057Y-83261904D01*
X102350057Y-83261904D02*
X102445295Y-83214285D01*
X102445295Y-83214285D02*
X102540533Y-83214285D01*
X102540533Y-83214285D02*
X102683390Y-83261904D01*
X102683390Y-83261904D02*
X103254819Y-83833332D01*
X103254819Y-83833332D02*
X103254819Y-83214285D01*
X103638095Y-90054819D02*
X103638095Y-90864342D01*
X103638095Y-90864342D02*
X103685714Y-90959580D01*
X103685714Y-90959580D02*
X103733333Y-91007200D01*
X103733333Y-91007200D02*
X103828571Y-91054819D01*
X103828571Y-91054819D02*
X104019047Y-91054819D01*
X104019047Y-91054819D02*
X104114285Y-91007200D01*
X104114285Y-91007200D02*
X104161904Y-90959580D01*
X104161904Y-90959580D02*
X104209523Y-90864342D01*
X104209523Y-90864342D02*
X104209523Y-90054819D01*
X105209523Y-91054819D02*
X104638095Y-91054819D01*
X104923809Y-91054819D02*
X104923809Y-90054819D01*
X104923809Y-90054819D02*
X104828571Y-90197676D01*
X104828571Y-90197676D02*
X104733333Y-90292914D01*
X104733333Y-90292914D02*
X104638095Y-90340533D01*
X120854819Y-92333333D02*
X121569104Y-92333333D01*
X121569104Y-92333333D02*
X121711961Y-92380952D01*
X121711961Y-92380952D02*
X121807200Y-92476190D01*
X121807200Y-92476190D02*
X121854819Y-92619047D01*
X121854819Y-92619047D02*
X121854819Y-92714285D01*
X120854819Y-91380952D02*
X120854819Y-91857142D01*
X120854819Y-91857142D02*
X121331009Y-91904761D01*
X121331009Y-91904761D02*
X121283390Y-91857142D01*
X121283390Y-91857142D02*
X121235771Y-91761904D01*
X121235771Y-91761904D02*
X121235771Y-91523809D01*
X121235771Y-91523809D02*
X121283390Y-91428571D01*
X121283390Y-91428571D02*
X121331009Y-91380952D01*
X121331009Y-91380952D02*
X121426247Y-91333333D01*
X121426247Y-91333333D02*
X121664342Y-91333333D01*
X121664342Y-91333333D02*
X121759580Y-91380952D01*
X121759580Y-91380952D02*
X121807200Y-91428571D01*
X121807200Y-91428571D02*
X121854819Y-91523809D01*
X121854819Y-91523809D02*
X121854819Y-91761904D01*
X121854819Y-91761904D02*
X121807200Y-91857142D01*
X121807200Y-91857142D02*
X121759580Y-91904761D01*
X100854819Y-101166666D02*
X100378628Y-101499999D01*
X100854819Y-101738094D02*
X99854819Y-101738094D01*
X99854819Y-101738094D02*
X99854819Y-101357142D01*
X99854819Y-101357142D02*
X99902438Y-101261904D01*
X99902438Y-101261904D02*
X99950057Y-101214285D01*
X99950057Y-101214285D02*
X100045295Y-101166666D01*
X100045295Y-101166666D02*
X100188152Y-101166666D01*
X100188152Y-101166666D02*
X100283390Y-101214285D01*
X100283390Y-101214285D02*
X100331009Y-101261904D01*
X100331009Y-101261904D02*
X100378628Y-101357142D01*
X100378628Y-101357142D02*
X100378628Y-101738094D01*
X99950057Y-100785713D02*
X99902438Y-100738094D01*
X99902438Y-100738094D02*
X99854819Y-100642856D01*
X99854819Y-100642856D02*
X99854819Y-100404761D01*
X99854819Y-100404761D02*
X99902438Y-100309523D01*
X99902438Y-100309523D02*
X99950057Y-100261904D01*
X99950057Y-100261904D02*
X100045295Y-100214285D01*
X100045295Y-100214285D02*
X100140533Y-100214285D01*
X100140533Y-100214285D02*
X100283390Y-100261904D01*
X100283390Y-100261904D02*
X100854819Y-100833332D01*
X100854819Y-100833332D02*
X100854819Y-100214285D01*
X92454819Y-99933333D02*
X93169104Y-99933333D01*
X93169104Y-99933333D02*
X93311961Y-99980952D01*
X93311961Y-99980952D02*
X93407200Y-100076190D01*
X93407200Y-100076190D02*
X93454819Y-100219047D01*
X93454819Y-100219047D02*
X93454819Y-100314285D01*
X92788152Y-99028571D02*
X93454819Y-99028571D01*
X92407200Y-99266666D02*
X93121485Y-99504761D01*
X93121485Y-99504761D02*
X93121485Y-98885714D01*
X100854819Y-96479166D02*
X100378628Y-96812499D01*
X100854819Y-97050594D02*
X99854819Y-97050594D01*
X99854819Y-97050594D02*
X99854819Y-96669642D01*
X99854819Y-96669642D02*
X99902438Y-96574404D01*
X99902438Y-96574404D02*
X99950057Y-96526785D01*
X99950057Y-96526785D02*
X100045295Y-96479166D01*
X100045295Y-96479166D02*
X100188152Y-96479166D01*
X100188152Y-96479166D02*
X100283390Y-96526785D01*
X100283390Y-96526785D02*
X100331009Y-96574404D01*
X100331009Y-96574404D02*
X100378628Y-96669642D01*
X100378628Y-96669642D02*
X100378628Y-97050594D01*
X100854819Y-95526785D02*
X100854819Y-96098213D01*
X100854819Y-95812499D02*
X99854819Y-95812499D01*
X99854819Y-95812499D02*
X99997676Y-95907737D01*
X99997676Y-95907737D02*
X100092914Y-96002975D01*
X100092914Y-96002975D02*
X100140533Y-96098213D01*
X108866666Y-100454819D02*
X108866666Y-101169104D01*
X108866666Y-101169104D02*
X108819047Y-101311961D01*
X108819047Y-101311961D02*
X108723809Y-101407200D01*
X108723809Y-101407200D02*
X108580952Y-101454819D01*
X108580952Y-101454819D02*
X108485714Y-101454819D01*
X109866666Y-101454819D02*
X109295238Y-101454819D01*
X109580952Y-101454819D02*
X109580952Y-100454819D01*
X109580952Y-100454819D02*
X109485714Y-100597676D01*
X109485714Y-100597676D02*
X109390476Y-100692914D01*
X109390476Y-100692914D02*
X109295238Y-100740533D01*
X107854819Y-84166666D02*
X107378628Y-84499999D01*
X107854819Y-84738094D02*
X106854819Y-84738094D01*
X106854819Y-84738094D02*
X106854819Y-84357142D01*
X106854819Y-84357142D02*
X106902438Y-84261904D01*
X106902438Y-84261904D02*
X106950057Y-84214285D01*
X106950057Y-84214285D02*
X107045295Y-84166666D01*
X107045295Y-84166666D02*
X107188152Y-84166666D01*
X107188152Y-84166666D02*
X107283390Y-84214285D01*
X107283390Y-84214285D02*
X107331009Y-84261904D01*
X107331009Y-84261904D02*
X107378628Y-84357142D01*
X107378628Y-84357142D02*
X107378628Y-84738094D01*
X106854819Y-83833332D02*
X106854819Y-83214285D01*
X106854819Y-83214285D02*
X107235771Y-83547618D01*
X107235771Y-83547618D02*
X107235771Y-83404761D01*
X107235771Y-83404761D02*
X107283390Y-83309523D01*
X107283390Y-83309523D02*
X107331009Y-83261904D01*
X107331009Y-83261904D02*
X107426247Y-83214285D01*
X107426247Y-83214285D02*
X107664342Y-83214285D01*
X107664342Y-83214285D02*
X107759580Y-83261904D01*
X107759580Y-83261904D02*
X107807200Y-83309523D01*
X107807200Y-83309523D02*
X107854819Y-83404761D01*
X107854819Y-83404761D02*
X107854819Y-83690475D01*
X107854819Y-83690475D02*
X107807200Y-83785713D01*
X107807200Y-83785713D02*
X107759580Y-83833332D01*
D12*
%TO.C,J3*%
X91990000Y-92020000D02*
X99610000Y-92020000D01*
X99610000Y-92020000D02*
X99610000Y-81860000D01*
X91990000Y-81860000D02*
X91990000Y-92020000D01*
X98340000Y-81860000D02*
X98340000Y-92020000D01*
X99610000Y-81860000D02*
X91990000Y-81860000D01*
%TO.C,C3*%
X111465000Y-87011252D02*
X111465000Y-86488748D01*
X112935000Y-87011252D02*
X112935000Y-86488748D01*
%TO.C,C1*%
X109065000Y-87011252D02*
X109065000Y-86488748D01*
X110535000Y-87011252D02*
X110535000Y-86488748D01*
%TO.C,D1*%
X106160000Y-85052500D02*
X104240000Y-85052500D01*
X104240000Y-85052500D02*
X104240000Y-87737500D01*
X106160000Y-87737500D02*
X106160000Y-85052500D01*
%TO.C,C2*%
X102065000Y-87011252D02*
X102065000Y-86488748D01*
X103535000Y-87011252D02*
X103535000Y-86488748D01*
%TO.C,U1*%
X109200000Y-89640000D02*
X105750000Y-89640000D01*
X109200000Y-89640000D02*
X111150000Y-89640000D01*
X109200000Y-94760000D02*
X107250000Y-94760000D01*
X109200000Y-94760000D02*
X111150000Y-94760000D01*
%TO.C,J5*%
X122610000Y-81820000D02*
X114990000Y-81820000D01*
X122610000Y-81820000D02*
X122610000Y-102140000D01*
X114990000Y-81820000D02*
X114990000Y-102140000D01*
X116260000Y-102140000D02*
X116260000Y-81820000D01*
X114990000Y-102140000D02*
X122610000Y-102140000D01*
%TO.C,R2*%
X102735000Y-100972936D02*
X102735000Y-101427064D01*
X101265000Y-100972936D02*
X101265000Y-101427064D01*
%TO.C,J4*%
X91990000Y-102620000D02*
X99610000Y-102620000D01*
X99610000Y-102620000D02*
X99610000Y-92460000D01*
X91990000Y-92460000D02*
X91990000Y-102620000D01*
X98340000Y-92460000D02*
X98340000Y-102620000D01*
X99610000Y-92460000D02*
X91990000Y-92460000D01*
%TO.C,R1*%
X102735000Y-95685436D02*
X102735000Y-96139564D01*
X101265000Y-95685436D02*
X101265000Y-96139564D01*
%TO.C,J1*%
X114280000Y-103210000D02*
X114280000Y-95590000D01*
X114280000Y-95590000D02*
X104120000Y-95590000D01*
X104120000Y-103210000D02*
X114280000Y-103210000D01*
X104120000Y-96860000D02*
X114280000Y-96860000D01*
X104120000Y-95590000D02*
X104120000Y-103210000D01*
%TO.C,R3*%
X106665000Y-86939564D02*
X106665000Y-86485436D01*
X108135000Y-86939564D02*
X108135000Y-86485436D01*
%TD*%
M02*
